<svg xmlns="http://www.w3.org/2000/svg" width="1200" height="630" fill="none" viewBox="0 0 1200 630"><title>Shields.io OpenGraph image</title><desc>Social preview image for Shields.io featuring the logo and sample badges.</desc><defs><pattern id="dot-grid" width="28" height="28" patternUnits="userSpaceOnUse"><circle cx="2" cy="2" r="1.5" fill="#d5dde6"/></pattern></defs><rect width="1200" height="630" fill="#f7f9fb"/><rect width="1200" height="630" fill="url(#dot-grid)" opacity=".85"/><path fill="#eef3f6" d="M702 -24H1200V630H514L702 -24Z"/><path fill="#e8eef2" d="M846 0H1200V630H672L846 0Z"/><path fill="#dde7ec" d="M946 0H1200V630H812L946 0Z"/><g transform="translate(72 70)"><rect width="64" height="64" x="0" y="0" fill="#555" rx="16"/><path fill="#97ca00" d="M32 0H48C56.837 0 64 7.163 64 16V48C64 56.837 56.837 64 48 64H32V0Z"/><text x="88" y="44" fill="#1f2933" font-family="Arial" font-size="38" font-weight="800">Shields.io</text></g><g font-family="Arial"><text x="0" y="0" fill="#17202a" font-size="64" font-weight="800" transform="translate(72 224)">Concise, consistent,</text><text x="0" y="76" fill="#17202a" font-size="64" font-weight="800" transform="translate(72 224)">and legible badges.</text><text x="0" y="150" fill="#485766" font-size="28" font-weight="500" transform="translate(72 224)">Build status, versions, downloads,</text><text x="0" y="188" fill="#485766" font-size="28" font-weight="500" transform="translate(72 224)">coverage, funding, and more.</text></g><g transform="translate(72 506)"><rect width="236" height="48" x="0" y="0" fill="#fff" stroke="#d8e1e8" rx="12"/><rect width="20" height="20" x="14" y="14" fill="#555" rx="5"/><path fill="#97ca00" d="M24 14H29C31.761 14 34 16.239 34 19V29C34 31.761 31.761 34 29 34H24V14Z"/><text x="48" y="31" fill="#2d3742" font-family="Arial" font-size="20" font-weight="700">img.shields.io</text></g><g><g transform="translate(716 112) rotate(-7 235 197) translate(38 0)"><rect width="193.6" height="44" x="0" y="8" fill="#1f2933" opacity=".14" rx="7"/><image width="193.6" height="44" href="opengraph-badges/build.svg"/></g><g transform="translate(716 112) rotate(-7 235 197) translate(142 72)"><rect width="198" height="44" x="0" y="8" fill="#1f2933" opacity=".14" rx="7"/><image width="198" height="44" href="opengraph-badges/version.svg"/></g><g transform="translate(716 112) rotate(-7 235 197) translate(2 144)"><rect width="211.2" height="44" x="0" y="8" fill="#1f2933" opacity=".14" rx="7"/><image width="211.2" height="44" href="opengraph-badges/coverage.svg"/></g><g transform="translate(716 112) rotate(-7 235 197) translate(100 216)"><rect width="308" height="44" x="0" y="8" fill="#1f2933" opacity=".14" rx="7"/><image width="308" height="44" href="opengraph-badges/downloads.svg"/></g><g transform="translate(716 112) rotate(-7 235 197) translate(28 288)"><rect width="171.6" height="44" x="0" y="8" fill="#1f2933" opacity=".14" rx="7"/><image width="171.6" height="44" href="opengraph-badges/license.svg"/></g><g transform="translate(716 112) rotate(-7 235 197) translate(178 356)"><rect width="237.6" height="44" x="0" y="8" fill="#1f2933" opacity=".14" rx="7"/><image width="237.6" height="44" href="opengraph-badges/rating.svg"/></g><g transform="translate(716 112) rotate(-7 235 197) translate(10 428)"><rect width="213.4" height="44" x="0" y="8" fill="#1f2933" opacity=".14" rx="7"/><image width="213.4" height="44" href="opengraph-badges/npm.svg"/></g></g></svg>